<svg width="25" height="18" viewBox="0 0 25 18" fill="none" xmlns="http://www.w3.org/2000/svg">
<path d="M24.9828 1.47813C24.9766 1.425 24.9688 1.37344 24.9516 1.32187C24.8297 0.578125 24.2141 0 23.4375 0H1.5625C0.785937 0 0.170313 0.578125 0.0484375 1.32187C0.03125 1.37344 0.0234375 1.425 0.0171875 1.47813C0.015625 1.50781 0 1.53281 0 1.5625V15.625C0 15.6547 0.015625 15.6813 0.0171875 15.7109C0.0234375 15.7641 0.03125 15.8141 0.0484375 15.8656C0.16875 16.6078 0.785937 17.1875 1.5625 17.1875H23.4375C24.2141 17.1875 24.8312 16.6078 24.9516 15.8641C24.9688 15.8125 24.9766 15.7625 24.9828 15.7094C24.9844 15.6812 25 15.6547 25 15.625V1.5625C25 1.53281 24.9844 1.50781 24.9828 1.47813ZM22.8969 1.5625L14.225 7.92188L12.5 9.1875L10.7766 7.92344C10.7766 7.92344 10.775 7.92344 10.775 7.92188L2.10312 1.5625H22.8969ZM1.5625 3.10469L9.05 8.59531L1.5625 14.0844V3.10469ZM2.10312 15.625L10.3719 9.56406L12.0375 10.7859C12.175 10.8875 12.3375 10.9375 12.5 10.9375C12.6625 10.9375 12.825 10.8875 12.9625 10.7859L14.6281 9.56406L22.8969 15.625H2.10312ZM23.4375 14.0844L15.95 8.59531L23.4375 3.10469V14.0844Z" fill="white"/>
</svg>
