<svg width="25" height="25" viewBox="0 0 25 25" fill="none" xmlns="http://www.w3.org/2000/svg">
<path d="M17.9674 25C17.1604 25 16.3602 24.8573 15.5778 24.5731C12.1308 23.3209 8.9312 21.2814 6.32487 18.6751C3.71853 16.0688 1.67906 12.8692 0.426914 9.42217C0.0245382 8.31441 -0.0942069 7.1709 0.0740967 6.02329C0.231756 4.94833 0.648145 3.90477 1.2783 3.00539C1.91123 2.10206 2.75504 1.35073 3.71848 0.832632C4.74588 0.280164 5.86727 0 7.05159 0C7.41994 0 7.73828 0.257363 7.81548 0.617504L9.0417 6.33988C9.09721 6.599 9.01758 6.86862 8.83023 7.05601L6.73496 9.15124C8.71153 13.0811 11.9188 16.2883 15.8486 18.2649L17.9439 16.1696C18.1312 15.9823 18.4009 15.9028 18.66 15.9582L24.3824 17.1844C24.7426 17.2616 24.9999 17.5799 24.9999 17.9483C24.9999 19.1326 24.7197 20.2541 24.1672 21.2815C23.6491 22.2449 22.8978 23.0887 21.9944 23.7216C21.0951 24.3518 20.0515 24.7682 18.9765 24.9258C18.6397 24.9753 18.3029 25 17.9674 25ZM6.4274 1.59661C4.86521 1.76907 3.47864 2.58788 2.55788 3.90204C1.52247 5.37976 1.28103 7.19731 1.89546 8.88875C4.30278 15.5157 9.48426 20.6972 16.1112 23.1045C17.8026 23.719 19.6202 23.4776 21.0979 22.4421C22.4121 21.5213 23.2309 20.1348 23.4034 18.5726L18.7482 17.5751L16.56 19.7633C16.3272 19.9961 15.9734 20.058 15.6755 19.9179C11.0277 17.7344 7.26555 13.9723 5.08205 9.32452C4.94206 9.02653 5.00387 8.67274 5.23673 8.43994L7.42492 6.25175L6.4274 1.59661Z" fill="white"/>
<path d="M24.2182 13.2807C23.7868 13.2807 23.437 12.9309 23.437 12.4995C23.437 6.46878 18.5307 1.56244 12.5 1.56244C12.0685 1.56244 11.7188 1.21265 11.7188 0.781218C11.7188 0.34979 12.0685 0 12.5 0C15.8387 0 18.9776 1.30014 21.3385 3.66098C23.6993 6.02182 24.9995 9.16071 24.9995 12.4995C24.9995 12.9309 24.6497 13.2807 24.2182 13.2807Z" fill="white"/>
<path d="M21.0934 13.2808C20.6619 13.2808 20.3121 12.9311 20.3121 12.4996C20.3121 8.19199 16.8076 4.68744 12.5 4.68744C12.0685 4.68744 11.7188 4.33765 11.7188 3.90622C11.7188 3.47479 12.0685 3.125 12.5 3.125C17.6691 3.125 21.8746 7.33045 21.8746 12.4996C21.8746 12.9311 21.5248 13.2808 21.0934 13.2808Z" fill="white"/>
<path d="M17.9685 13.2807C17.5371 13.2807 17.1873 12.9309 17.1873 12.4995C17.1873 9.9149 15.0846 7.81219 12.5 7.81219C12.0685 7.81219 11.7188 7.4624 11.7188 7.03098C11.7188 6.59955 12.0685 6.24976 12.5 6.24976C15.9461 6.24976 18.7497 9.05336 18.7497 12.4995C18.7497 12.9309 18.4 13.2807 17.9685 13.2807Z" fill="white"/>
</svg>
